<svg width="66" height="66" viewBox="0 0 66 66" fill="none" xmlns="http://www.w3.org/2000/svg">
<rect x="1.71414" y="32.66" width="44" height="44" rx="2" transform="rotate(-45 1.71414 32.66)" stroke="black" stroke-opacity="0.125" stroke-width="2"/>
<path d="M37.8889 27.696C38.6194 27.3952 39.3498 28.1257 39.049 28.8561L36.2131 35.0436C36.0412 35.3444 35.8264 35.5593 35.5256 35.7311L29.3381 38.5671C28.6076 38.8679 27.8772 38.1374 28.1779 37.4069L31.0139 31.2194C31.1858 30.9186 31.4006 30.7038 31.7014 30.5319L37.8889 27.696ZM34.5803 34.0983C35.1389 33.5827 35.1389 32.6804 34.5803 32.1647C34.0647 31.6061 33.1623 31.6061 32.6467 32.1647C32.0881 32.6804 32.0881 33.5827 32.6467 34.0983C33.1623 34.6569 34.0647 34.6569 34.5803 34.0983ZM33.635 22.4538C39.4787 22.4538 44.2912 27.2663 44.2912 33.11C44.2912 38.9968 39.4787 43.7663 33.635 43.7663C27.7483 43.7663 22.9787 38.9968 22.9787 33.11C22.9787 27.2663 27.7483 22.4538 33.635 22.4538ZM33.635 41.7038C38.3615 41.7038 42.2287 37.8796 42.2287 33.11C42.2287 28.3835 38.3615 24.5163 33.635 24.5163C28.8654 24.5163 25.0412 28.3835 25.0412 33.11C25.0412 37.8796 28.8654 41.7038 33.635 41.7038Z" fill="#00FFCC"/>
</svg>
