<svg width="66" height="66" viewBox="0 0 66 66" fill="none" xmlns="http://www.w3.org/2000/svg">
<rect x="2.05411" y="32.66" width="44" height="44" rx="2" transform="rotate(-45 2.05411 32.66)" stroke="black" stroke-opacity="0.125" stroke-width="2"/>
<path d="M40.8549 35.86C43.0892 35.86 44.9799 37.7507 44.9799 39.985C44.9799 42.2624 43.0892 44.1101 40.8549 44.1101H28.9095C29.4681 43.4226 30.2416 42.4343 30.9291 41.36H40.8549C41.5853 41.36 42.2299 40.7585 42.2299 39.985C42.2299 39.2546 41.5853 38.61 40.8549 38.61H36.7299C34.4525 38.61 32.6049 36.7624 32.6049 34.485C32.6049 32.2507 34.4525 30.36 36.7299 30.36H38.6635C37.6752 28.985 36.7299 27.3522 36.7299 26.235C36.7299 23.9577 38.5775 22.11 40.8549 22.11C43.1322 22.11 44.9799 23.9577 44.9799 26.235C44.9799 28.5124 40.8549 33.11 40.8549 33.11H36.7299C35.9564 33.11 35.3549 33.7546 35.3549 34.485C35.3549 35.2585 35.9564 35.86 36.7299 35.86H40.8549ZM40.8549 24.86C40.0814 24.86 39.4799 25.5046 39.4799 26.235C39.4799 27.0085 40.0814 27.61 40.8549 27.61C41.5853 27.61 42.2299 27.0085 42.2299 26.235C42.2299 25.5046 41.5853 24.86 40.8549 24.86ZM27.1048 33.11C29.3822 33.11 31.2299 34.9577 31.2299 37.235C31.2299 39.5124 27.1048 44.1101 27.1048 44.1101C27.1048 44.1101 22.9798 39.5124 22.9798 37.235C22.9798 34.9577 24.8275 33.11 27.1048 33.11ZM27.1048 38.61C27.8353 38.61 28.4799 38.0085 28.4799 37.235C28.4799 36.5046 27.8353 35.86 27.1048 35.86C26.3314 35.86 25.7298 36.5046 25.7298 37.235C25.7298 38.0085 26.3314 38.61 27.1048 38.61Z" fill="#76DDFF"/>
</svg>
