<svg width="67" height="66" viewBox="0 0 67 66" fill="none" xmlns="http://www.w3.org/2000/svg">
<rect x="2.38418" y="32.66" width="44" height="44" rx="2" transform="rotate(-45 2.38418 32.66)" stroke="black" stroke-opacity="0.125" stroke-width="2"/>
<path d="M45.9924 23.485C46.3362 23.485 46.6799 23.7858 46.6799 24.2155V39.0827C46.6799 39.6413 46.2932 40.1569 45.7776 40.3718L39.2893 42.6061C38.9885 42.6921 38.7307 42.7351 38.4299 42.7351C38.1291 42.7351 37.8284 42.6921 37.5706 42.6061L30.1799 39.985L22.8323 42.6921C22.7463 42.7351 22.6604 42.7351 22.5745 42.7351C22.2307 42.7351 21.9299 42.4772 21.9299 42.0476V27.1804C21.9299 26.6218 22.2737 26.1061 22.7893 25.8913L29.2776 23.6569C29.5784 23.571 29.8791 23.485 30.137 23.485C30.4377 23.528 30.7385 23.571 31.0393 23.6569L38.4299 26.235L45.7346 23.571C45.8206 23.528 45.9065 23.485 45.9924 23.485ZM31.5549 26.0202V38.3093L37.0549 40.2429V27.9538L31.5549 26.0202ZM23.9924 40.114L29.4495 38.0515H29.4924V25.7624L23.9924 27.696V40.114ZM44.6174 38.5671V26.1491L39.1174 28.2116V40.5007L44.6174 38.5671Z" fill="#00F0FF"/>
</svg>
